<svg width="24" height="24" viewBox="0 0 24 24" fill="black" class="styles_iconClass__1EYs3">
  <path fill-rule="evenodd" clip-rule="evenodd" d="M4 6C4 5.44772 4.44772 5 5 5H14C14.5523 5 15 5.44772 15 6C15 6.55228 14.5523 7 14 7H5C4.44772 7 4 6.55228 4 6ZM4 18C4 17.4477 4.44772 17 5 17H14C14.5523 17 15 17.4477 15 18C15 18.5523 14.5523 19 14 19H5C4.44772 19 4 18.5523 4 18ZM5 11C4.44772 11 4 11.4477 4 12C4 12.5523 4.44772 13 5 13H19C19.5523 13 20 12.5523 20 12C20 11.4477 19.5523 11 19 11H5Z"></path>
</svg>