<!-- Generated by IcoMoon.io -->
<svg version="1.1" xmlns="http://www.w3.org/2000/svg" width="448" height="448" viewBox="0 0 448 448">
<title></title>
<g id="icomoon-ignore">
</g>
<path fill="#000" d="M28.445 239.723v-42.192h12.326c1.58 0 3.003 0.158 4.267 0.632s2.37 1.106 3.161 2.055c0.948 0.948 1.58 2.212 2.054 3.951s0.79 3.793 0.79 6.163c0 2.055-0.158 3.793-0.474 5.373-0.316 1.422-0.79 2.845-1.422 3.951s-1.738 2.054-3.003 2.528c-1.264 0.632-2.845 0.79-4.741 0.79h-3.793v16.751h-9.166zM37.61 205.274v10.114h0.474c0.474 0 0.79 0 1.106 0s0.632-0.158 0.948-0.158c0.316-0.158 0.632-0.316 0.79-0.474s0.316-0.474 0.474-0.948c0.158-0.316 0.316-0.79 0.316-1.422s0.158-1.264 0.158-2.212c0-1.896-0.316-3.161-0.79-3.793s-1.264-1.106-2.528-1.106h-0.948z"></path>
<path fill="#000" d="M70.795 197.531l4.583 42.192h-9.007l-0.632-6.321h-4.741l-0.632 6.321h-9.007l4.741-42.192h14.697zM63.842 205.432h-0.79l-1.264 20.227h3.318l-1.264-20.227z"></path>
<path fill="#000" d="M89.284 240.198c-4.267 0-7.427-0.948-9.166-3.003-1.896-1.896-2.686-5.057-2.686-9.166v-4.109h9.166v3.793c0 2.686 0.79 4.109 2.212 4.109 0.632 0 1.264-0.316 1.58-0.79 0.474-0.474 0.632-1.264 0.632-2.055 0-1.106-0.158-2.054-0.474-2.845s-0.79-1.58-1.422-2.212c-0.632-0.632-1.58-1.738-3.003-2.845l-3.951-3.476c-3.16-2.686-4.741-5.847-4.741-9.324 0-3.793 0.948-6.479 2.845-8.376s4.583-2.686 7.901-2.686c0.158 0 0.158 0 0.316 0s0.474 0 1.422 0c0.79 0 1.896 0.158 3.318 0.632s2.528 1.106 3.635 2.055c1.106 0.948 1.896 2.212 2.37 3.793s0.79 3.635 0.79 6.005h-9.481v-2.528c0-0.474-0.158-0.948-0.632-1.264-0.316-0.316-0.79-0.632-1.264-0.632-0.632 0-1.106 0.158-1.58 0.632s-0.632 0.79-0.632 1.422c0 1.264 0.948 2.528 2.686 3.951l5.689 4.583c0.948 0.79 1.738 1.422 2.37 2.212s1.264 1.58 1.58 2.212c0.474 0.79 0.79 1.422 0.948 2.054s0.474 1.264 0.474 2.054c0.158 0.79 0.158 1.264 0.158 1.58s0 0.79 0 1.422c0 1.422-0.158 2.845-0.316 4.109s-0.474 2.37-1.106 3.476c-0.474 1.106-1.106 2.055-1.896 2.845s-1.896 1.422-3.16 1.738c-1.422 0.316-2.845 0.632-4.583 0.632z"></path>
<path fill="#000" d="M101.61 197.531h20.385v8.059h-5.531v33.975h-9.324v-33.975h-5.531v-8.059z"></path>
<path fill="#000" d="M134.321 220.444v19.121h-9.481v-42.035h14.222c1.422 0 2.686 0.158 3.793 0.632s1.896 0.948 2.528 1.58 1.106 1.422 1.422 2.528 0.632 2.055 0.632 3.16c0.158 1.106 0.158 2.37 0.158 3.951 0 0.79 0 1.422 0 1.896s-0.158 1.106-0.316 1.896-0.474 1.422-0.632 1.896-0.79 0.948-1.422 1.58c-0.632 0.474-1.422 0.948-2.212 1.106 0.79 0.158 1.58 0.474 2.212 0.948s0.948 0.948 1.264 1.58c0.316 0.632 0.474 1.264 0.474 1.738 0.158 0.474 0.158 1.106 0.158 1.738 0 6.953 0 12.326-0.158 15.803h-9.166v-16.435c0-0.632 0-1.106-0.158-1.58-0.158-0.316-0.316-0.632-0.79-0.79-0.316-0.158-0.632-0.316-1.106-0.316-0.316 0.158-0.79 0-1.422 0zM134.321 205.432v7.901h2.37c1.264 0 1.896-1.264 1.896-3.793 0-1.738-0.316-2.845-0.79-3.318s-1.422-0.79-3.003-0.79h-0.474z"></path>
<path fill="#000" d="M164.662 239.723h-8.849v-13.906l-7.269-28.287h9.166l2.528 14.222 2.528-14.222h9.166l-7.427 28.287v13.906z"></path>
<path fill="#000" d="M277.175 240.198c-4.267 0-7.427-0.948-9.166-3.003-1.896-1.896-2.686-5.057-2.686-9.166v-4.109h9.166v3.793c0 2.686 0.79 4.109 2.212 4.109 0.632 0 1.264-0.316 1.58-0.79 0.474-0.474 0.632-1.264 0.632-2.055 0-1.106-0.158-2.054-0.474-2.845s-0.79-1.58-1.422-2.212-1.58-1.58-3.003-2.845l-3.951-3.476c-3.161-2.686-4.741-5.847-4.741-9.166 0-3.793 0.948-6.479 2.845-8.375s4.583-2.686 7.901-2.686c0.158 0 0.158 0 0.316 0s0.474 0 1.422 0c0.79 0 1.896 0.158 3.318 0.632s2.528 1.106 3.635 2.054c1.106 0.948 1.896 2.212 2.37 3.793s0.79 3.635 0.79 6.005h-9.482v-2.528c0-0.474-0.158-0.948-0.632-1.264-0.316-0.316-0.79-0.632-1.264-0.632-0.632 0-1.106 0.158-1.58 0.632-0.474 0.316-0.632 0.79-0.632 1.422 0 1.264 0.948 2.528 2.686 3.951l5.689 4.583c0.948 0.79 1.738 1.422 2.37 2.212s1.264 1.58 1.58 2.212c0.474 0.79 0.79 1.422 0.948 2.055 0.316 0.632 0.474 1.264 0.474 2.054 0.158 0.79 0.158 1.264 0.158 1.58s0 0.79 0 1.422c0 1.422-0.158 2.845-0.316 3.951-0.158 1.264-0.474 2.37-1.106 3.476s-1.106 2.055-1.896 2.845c-0.79 0.79-1.896 1.264-3.161 1.738-1.422 0.316-3.003 0.632-4.583 0.632z"></path>
<path fill="#000" d="M289.501 197.689h20.385v8.059h-5.531v33.975h-9.324v-33.975h-5.531v-8.059z"></path>
<path fill="#000" d="M329.007 197.689l4.583 42.035h-9.007l-0.632-6.321h-4.741l-0.632 6.321h-8.849l4.741-42.035h14.538zM322.054 205.59h-0.79l-1.264 20.227h3.318l-1.264-20.227z"></path>
<path fill="#000" d="M333.59 197.689h20.385v8.059h-5.531v33.975h-9.324v-33.975h-5.531v-8.059z"></path>
<path fill="#000" d="M356.662 239.723v-42.035h9.007v42.035h-9.007z"></path>
<path fill="#000" d="M369.778 228.346v-20.069c0-3.476 0.948-6.163 2.845-8.217s4.741-2.845 8.533-3.003c3.951 0 6.795 1.106 8.691 3.003s2.845 4.583 2.845 8.217v20.069c0 1.738-0.158 3.318-0.632 4.583-0.474 1.422-1.106 2.686-1.896 3.793-0.948 1.106-2.055 1.896-3.635 2.528s-3.161 0.948-5.215 0.79c-2.055 0-3.793-0.158-5.373-0.79s-2.686-1.422-3.635-2.528c-0.948-1.106-1.58-2.37-1.896-3.793-0.474-1.264-0.632-2.845-0.632-4.583zM381.156 231.822c0.316 0 0.632 0 0.948-0.158s0.474-0.316 0.632-0.632c0.158-0.316 0.316-0.474 0.316-0.79s0.158-0.632 0.158-0.948c0-0.474 0-0.79 0-0.948s0-0.474 0-0.948c0-0.158 0-0.158 0-0.158v-16.909c0-0.158 0-0.316 0-0.632s0-0.632 0-0.79 0-0.316 0-0.632 0-0.474-0.158-0.79c0-0.158-0.158-0.316-0.158-0.632s-0.158-0.474-0.316-0.632-0.158-0.316-0.316-0.474c-0.158-0.158-0.316-0.316-0.474-0.316s-0.474-0.158-0.79-0.158c-0.316 0-0.632 0-0.948 0.158s-0.474 0.316-0.632 0.632c-0.158 0.316-0.316 0.474-0.474 0.79-0.158 0.158-0.158 0.474-0.158 0.948s0 0.79 0 0.948c0 0.158 0 0.474 0 0.948 0 0 0 0.158 0 0.158s0 0.158 0 0.158v16.909c0 0.316 0 0.632 0 0.948s0 0.632 0 0.948c0 0.474 0.158 0.79 0.158 1.106 0.158 0.316 0.158 0.632 0.316 0.79 0.158 0.316 0.316 0.474 0.632 0.632 0.632 0.474 0.948 0.474 1.264 0.474z"></path>
<path fill="#000" d="M419.398 197.689v42.035h-9.007l-4.583-21.018v21.018h-9.166v-42.035h9.481l4.267 20.069v-20.069h9.007z"></path>
<path fill="#000" d="M222.341 210.173c-0.948 1.106-1.896 2.055-2.686 3.003-1.106 1.264-2.37 2.212-3.318 3.635-0.948 1.58-2.37 2.37-3.793 3.16-1.106 0.632-2.37 1.422-3.635 2.212-2.37-2.528-4.741-4.899-7.111-7.269-6.005-6.005-12.010-12.010-18.015-18.173-0.316-0.316-0.632-0.632-0.79-0.79-1.106-1.106-1.106-2.528 0-3.635 0.79-0.948 1.738-1.738 2.528-2.686 1.896-2.055 3.951-3.951 5.847-6.005 1.422-1.58 3.16-1.422 4.583 0 5.373 5.373 10.746 10.904 16.277 16.277 3.003 3.003 6.163 6.005 9.166 9.166 0.316 0.474 0.632 0.79 0.948 1.106z"></path>
<path fill="#000" d="M218.706 231.664c0-0.158 0.158-0.316 0.158-0.474 1.106-2.212 2.212-4.425 3.318-6.479 0.474-0.474 1.106-0.79 1.58-1.264 1.896-2.055 3.635-4.109 5.689-6.163 0.316 0.316 0.632 0.632 0.948 0.79 4.109 4.109 8.059 8.059 12.168 12.168 3.476 3.476 6.953 6.953 10.272 10.272 0.316 0.316 0.79 0.79 1.106 1.106 0.948 1.264 0.948 2.37-0.158 3.476-1.422 1.422-2.845 2.845-4.266 4.266s-2.845 2.845-4.266 4.267c-1.422 1.422-2.845 1.422-4.425 0-4.899-4.899-9.956-9.956-14.854-14.854-2.212-2.212-4.425-4.425-6.637-6.637-0.158 0-0.316-0.316-0.632-0.474z"></path>
<path fill="#000" d="M222.499 222.183c-1.58-1.422-3.003-2.686-4.583-4.109 12.484-13.748 24.968-27.496 37.61-41.402 0.79 0.79 1.58 1.422 2.212 2.055s1.422 1.264 2.212 2.054c-12.484 13.906-24.968 27.496-37.452 41.402z"></path>
<path fill="#000" d="M180.78 263.269c-0.474-0.632-0.474-1.264-0.316-2.055 0.474-2.055 1.422-3.793 2.528-5.531 1.58-2.37 3.318-4.583 5.373-6.637 3.635-3.793 7.743-7.269 11.694-10.746 3.793-3.318 7.427-6.637 11.062-9.956 2.055-1.896 4.267-3.951 6.321-5.847 0.316-0.158 0.474-0.474 0.948-0.474-0.158 0.316-0.316 0.632-0.474 0.79-2.686 3.793-5.373 7.585-8.217 11.22-3.793 5.215-7.743 10.272-11.694 15.487-2.054 2.686-4.425 5.373-6.795 7.743-2.212 2.37-4.741 4.267-7.901 5.531-0.79 0.632-1.58 0.948-2.528 0.474z"></path>
<path fill="#000" d="M178.41 260.267c-0.158-0.316-0.474-0.79-0.474-1.106-1.738-5.057-0.948-9.639 2.528-13.59 2.212-2.528 4.583-4.583 7.269-6.637 5.847-4.583 12.168-8.691 18.489-12.642 3.318-2.054 6.637-4.109 9.956-6.163 0.316-0.158 0.474-0.316 0.79-0.316 0 0 0.158 0.158 0.158 0.158-0.158 0.158-0.316 0.474-0.474 0.632-2.212 2.055-4.267 4.109-6.479 6.005-2.528 2.212-4.899 4.583-7.427 6.795-2.37 2.055-4.741 4.109-7.111 6.163-3.318 2.845-6.637 5.847-9.639 9.166-3.161 3.318-5.847 7.111-7.269 11.536-0.158 0-0.158 0-0.316 0z"></path>
<path fill="#000" d="M183.783 265.165c0.158-0.158 0.316-0.316 0.474-0.316 4.267-1.896 7.585-4.899 10.588-8.375 6.953-8.059 13.274-16.593 19.437-25.284 1.896-2.528 3.793-5.215 5.689-7.743 0.158-0.158 0.316-0.316 0.474-0.474 0.158 0 0.158 0.158 0.316 0.158-0.158 0.316-0.158 0.632-0.316 0.948-1.738 3.476-3.476 6.795-5.057 10.272-2.686 5.531-5.531 10.904-8.691 16.277-2.212 3.793-4.583 7.427-7.585 10.746-3.951 4.425-8.691 5.689-14.38 4.266-0.158 0-0.158-0.158-0.316-0.158-0.316-0.158-0.474-0.158-0.632-0.316z"></path>
<path fill="#000" d="M249.205 253.155c1.422-1.422 2.686-2.686 4.109-4.109 0.158 0.158 0.474 0.316 0.79 0.474 3.635 2.686 7.269 5.373 10.904 8.059 0.79 0.632 1.422 1.264 2.055 1.896 1.58 2.055 1.422 5.373-0.948 7.427-1.896 1.58-5.373 1.58-7.269-0.632-1.264-1.58-2.528-3.161-3.793-4.741-1.896-2.528-3.635-5.057-5.531-7.743-0.158-0.316-0.158-0.474-0.316-0.632z"></path>
<path fill="#000" d="M187.891 184.099c-1.422 1.422-2.686 2.845-4.109 4.267-0.632-0.474-1.106-0.79-1.738-1.264-3.476-2.528-7.111-5.215-10.588-7.743-1.264-0.948-2.055-2.212-2.37-3.793-0.474-2.212 1.264-5.215 3.793-5.847 2.212-0.474 4.109-0.158 5.689 1.738 1.106 1.422 2.212 2.686 3.16 4.109 1.896 2.528 3.635 5.057 5.531 7.585 0.316 0.158 0.474 0.632 0.632 0.948z"></path>
<path fill="#000" d="M256.948 175.249c0.79-1.106 1.738-1.896 3.003-1.738 1.422 0.158 2.37 1.106 2.686 2.37 0.474 1.422-0.158 2.37-1.264 3.318-1.58-1.264-3.003-2.528-4.425-3.951z"></path>
<path fill="#000" d="M134.321 282.548v4.425h-1.422v-4.425l-5.215-8.376h1.422l4.425 7.269 4.425-7.269h1.422l-5.057 8.376z"></path>
<path fill="#000" d="M140.010 280.494c0-3.793 2.845-6.637 6.795-6.637s6.795 2.845 6.795 6.637-2.845 6.637-6.795 6.637c-3.951 0-6.795-2.845-6.795-6.637zM152.178 280.494c0-3.003-2.37-5.373-5.373-5.373-3.16 0-5.373 2.212-5.373 5.373 0 3.003 2.37 5.373 5.373 5.373s5.373-2.212 5.373-5.373z"></path>
<path fill="#000" d="M156.444 281.442v-7.427h1.422v7.269c0 3.003 1.422 4.425 3.951 4.425s3.951-1.422 3.951-4.425v-7.269h1.264v7.427c0 3.635-2.054 5.689-5.215 5.689s-5.373-1.896-5.373-5.689z"></path>
<path fill="#000" d="M179.99 286.973l-3.003-4.109c-0.316 0-0.632 0-1.106 0h-3.476v4.109h-1.422v-12.958h4.899c3.318 0 5.215 1.738 5.215 4.425 0 2.055-1.106 3.476-3.003 4.109l3.161 4.425h-1.264zM179.99 278.439c0-2.055-1.422-3.318-3.951-3.318h-3.476v6.479h3.476c2.528 0.158 3.951-1.106 3.951-3.161z"></path>
<path fill="#000" d="M188.207 285.393l0.474-1.106c0.948 0.948 2.528 1.58 4.267 1.58 2.37 0 3.476-0.948 3.476-2.212 0-3.476-7.901-1.422-7.901-6.163 0-1.896 1.422-3.476 4.741-3.476 1.422 0 3.003 0.474 3.951 1.106l-0.474 1.106c-1.106-0.79-2.37-1.106-3.476-1.106-2.37 0-3.476 1.106-3.476 2.37 0 3.476 7.901 1.422 7.901 6.163 0 1.896-1.58 3.476-4.741 3.476-1.896 0-3.793-0.632-4.741-1.738z"></path>
<path fill="#000" d="M218.39 274.015l-4.425 12.958h-1.422l-3.793-11.062-3.793 11.062h-1.422l-4.425-12.958h1.422l3.793 11.062 3.793-11.062h1.264l3.793 11.22 3.793-11.22h1.422z"></path>
<path fill="#000" d="M230.084 285.867v1.106h-9.166v-12.958h8.849v1.106h-7.427v4.583h6.637v1.106h-6.637v4.741h7.743z"></path>
<path fill="#000" d="M242.41 285.867v1.106h-9.166v-12.958h8.849v1.106h-7.427v4.583h6.637v1.106h-6.637v4.741h7.743z"></path>
<path fill="#000" d="M248.099 275.279h-4.583v-1.106h10.43v1.106h-4.583v11.694h-1.264v-11.694z"></path>
<path fill="#000" d="M259.793 285.393l0.474-1.106c0.948 0.948 2.528 1.58 4.266 1.58 2.37 0 3.476-0.948 3.476-2.212 0-3.476-7.901-1.422-7.901-6.163 0-1.896 1.422-3.476 4.741-3.476 1.422 0 3.003 0.474 3.951 1.106l-0.474 1.106c-1.106-0.79-2.37-1.106-3.476-1.106-2.37 0-3.476 1.106-3.476 2.37 0 3.476 7.901 1.422 7.901 6.163 0 1.896-1.58 3.476-4.741 3.476-1.896 0-3.793-0.632-4.741-1.738z"></path>
<path fill="#000" d="M282.39 278.439c0 2.686-2.055 4.425-5.215 4.425h-3.476v4.109h-1.422v-12.958h4.899c3.318 0 5.215 1.738 5.215 4.425zM281.126 278.439c0-2.055-1.422-3.318-3.951-3.318h-3.476v6.479h3.476c2.528 0.158 3.951-1.106 3.951-3.161z"></path>
<path fill="#000" d="M284.445 280.494c0-3.793 2.845-6.637 6.795-6.637s6.795 2.845 6.795 6.637-2.845 6.637-6.795 6.637c-3.951 0-6.795-2.845-6.795-6.637zM296.612 280.494c0-3.003-2.37-5.373-5.373-5.373-3.161 0-5.373 2.212-5.373 5.373 0 3.003 2.37 5.373 5.373 5.373 3.161 0 5.373-2.212 5.373-5.373z"></path>
<path fill="#000" d="M303.408 275.279h-4.583v-1.106h10.43v1.106h-4.583v11.694h-1.264v-11.694z"></path>
<path fill="#000" d="M161.975 164.030c1.58-0.632 3.318-1.106 4.109 0 0.948 1.106 0.632 2.845-1.422 4.583-0.632 0.632-1.264 1.106-2.37 1.58-0.158 0-0.158 0-0.316 0-0.474-0.316-1.106-0.79-1.58-1.106-0.158 0 0-0.158 0.158-0.158 0.948 0.632 2.686 0.948 4.267-0.632 0.948-0.79 1.58-2.055 0.79-3.003-0.948-1.106-2.528-0.632-4.109 0s-3.003 1.264-4.109 0.158c-1.106-1.106-0.158-3.161 1.264-4.425 0.632-0.474 1.264-0.948 2.212-1.422 0.158-0.158 0.316-0.158 0.474 0 0.316 0.316 0.79 0.79 1.106 1.106 0 0-0.158 0.158-0.158 0.158-0.632-0.632-2.054-0.948-3.635 0.474-1.422 1.264-1.264 2.528-0.632 3.16 0.79 0.79 2.37 0.158 3.951-0.474z"></path>
<path fill="#000" d="M178.094 158.183c0.158 0 0.158 0.158 0 0-0.474 0.474-1.106 0.79-1.896 1.264s-1.422 0.948-1.896 1.264c0 0-0.158-0.158-0.158-0.158 1.264-0.79 1.422-1.106 0.948-1.896-1.264-1.896-2.528-3.951-3.793-5.847-0.474-0.79-0.79-0.79-2.212 0.158 0 0-0.158-0.158-0.158-0.158 0.632-0.316 1.422-0.79 2.212-1.264 0.948-0.474 1.58-0.948 2.212-1.422 0 0 0.158 0.158 0.158 0.158-1.422 0.79-1.58 1.106-1.106 1.896 1.264 1.896 2.37 3.951 3.635 5.847 0.474 0.948 0.79 0.948 2.055 0.158z"></path>
<path fill="#000" d="M194.528 141.59c-1.106 0.316-1.422 0.79-1.264 1.738 0.79 2.528 1.58 5.057 2.37 7.585 0 0-0.158 0.158-0.158 0.158-3.476-1.896-7.427-3.476-11.378-4.741-0.158 0-0.316-0.158-0.474-0.158 0.948 2.055 1.896 4.267 2.686 6.321 0.474 0.948 0.948 1.106 1.896 0.632 0 0 0.158 0.158 0 0.158-0.474 0.158-0.948 0.316-1.58 0.632s-1.106 0.474-1.58 0.79c0 0-0.158-0.158 0-0.158 0.948-0.474 1.106-0.948 0.79-1.896-0.948-2.212-1.896-4.425-2.845-6.637-0.632-0.158-1.106 0-1.58 0.158 0 0-0.158-0.158 0-0.158 0.474-0.158 0.948-0.474 1.264-0.632s0.79-0.316 0.948-0.474c0.316-0.158 0.316 0 1.264 0.316 3.476 1.264 6.953 2.686 10.114 4.267-0.632-2.055-1.264-4.267-1.896-6.321-0.316-0.948-0.79-1.264-1.896-0.79 0 0-0.158-0.158 0-0.158 0.474-0.158 1.106-0.316 1.738-0.474s1.264-0.474 1.738-0.632c-0.158 0.158 0 0.474-0.158 0.474z"></path>
<path fill="#000" d="M212.227 138.746c0.316 0.158 0.316 0.158 0.316 0.316 0.158 0.474 0.158 1.106 0.316 1.58 0 0-0.158 0.158-0.158 0-0.632-1.58-2.686-2.054-5.057-1.738-3.318 0.474-5.215 2.37-4.741 4.899 0.632 2.845 3.635 4.583 6.479 4.266 1.738-0.158 3.16-0.948 3.793-2.686 0 0 0.158 0 0.158 0 0 0.474-0.158 1.106-0.158 1.58 0 0.316 0 0.316-0.316 0.316-1.106 0.474-2.37 0.79-3.476 0.948-4.741 0.632-7.111-1.58-7.585-3.793-0.632-2.845 2.686-5.373 6.637-5.847 1.422-0.316 3.003-0.158 3.793 0.158z"></path>
<path fill="#000" d="M228.346 145.857c-0.158 0.474-0.316 1.264-0.474 1.896 0 0.158-0.158 0.158-0.316 0.158-2.528-0.316-5.215-0.474-7.743-0.474 0 0 0-0.158 0-0.158 1.422 0 1.738-0.158 1.738-0.948 0.158-2.37 0.158-4.583 0.316-6.953 0-0.79-0.158-1.106-1.896-1.106 0 0 0-0.158 0-0.158 2.845 0 5.531 0.158 8.375 0.474 0.158 0 0.158 0 0.158 0.158 0 0.632-0.158 1.264-0.158 1.738 0 0-0.158 0-0.158 0 0.158-1.106-0.632-1.738-1.896-1.896-0.474 0-0.948 0-1.422-0.158-1.58-0.158-1.896 0-1.896 0.948s-0.158 2.055-0.158 3.003c0.948 0 1.738 0.158 2.686 0.158 1.264 0.158 1.738-0.158 1.738-0.948 0 0 0.316 0 0.316 0 0 0.632-0.158 0.79-0.158 1.106 0 0.474 0 0.79-0.158 1.422 0 0-0.316 0-0.158 0 0.158-0.948-0.316-1.264-1.58-1.422-0.79 0-1.738-0.158-2.528-0.158 0 1.106-0.158 2.37-0.158 3.476 0 0.79 0.158 0.948 1.58 1.106 0.632 0 1.106 0.158 1.738 0.158 0.948 0.158 1.896-0.632 2.212-1.738-0.316 0.158 0 0.316 0 0.316z"></path>
<path fill="#000" d="M243.832 150.44c0 0 0 0.158-0.158 0.158-0.158 0.158-0.316 0.316-0.474 0.474 0 0-0.158 0-0.158 0-2.212-0.79-4.425-1.264-6.795-1.896-0.158 0-0.158-0.158-0.158-0.316s0.158-0.158 0.316-0.158c1.738-0.474 3.318-0.948 4.425-1.738 0.79-0.474 1.422-0.948 1.896-1.264 0.316-0.316 0.632-0.948 0.79-1.422 0.158-0.632 0.158-1.264-0.158-1.738-0.316-0.632-1.106-0.948-2.212-1.264-1.264-0.316-2.37-0.316-3.003 0.158 0 0-0.158 0-0.158 0-0.158 0-0.158-0.158-0.158-0.158 0-0.158 0.316-0.316 0.632-0.474s0.79-0.316 1.106-0.316 1.896 0 2.845 0.158c1.106 0.316 1.896 0.79 2.37 1.422s0.632 1.264 0.316 2.055c-0.158 0.474-0.474 0.948-0.948 1.422-0.79 0.79-1.738 1.422-2.845 1.896s-2.212 0.948-3.318 1.264c0 0-0.158 0-0.158 0s0 0.158 0.158 0.158c0.79 0.158 1.422 0.316 2.212 0.632 1.264 0.316 2.37 0.632 3.003 0.79 0.316 0 0.474 0 0.632 0.158-0.158 0 0 0 0 0z"></path>
<path fill="#000" d="M257.738 152.020c-0.316 0.632-0.632 0.948-0.79 1.264-0.316 0.316-0.632 0.632-1.106 0.948-0.79 0.474-1.58 0.79-2.37 0.79-0.474 0-0.79 0-0.948 0s-0.474-0.158-0.948-0.316c-0.632-0.316-0.948-0.474-1.264-0.79 0 0-0.316-0.316-0.632-0.79-0.316-0.316-0.474-0.948-0.632-1.738s0-1.738 0.474-2.686c0.632-1.422 1.422-2.528 2.528-3.161 0.474-0.316 1.106-0.474 1.896-0.316 0.632 0 1.422 0.158 1.896 0.474 1.106 0.474 1.896 1.422 2.37 2.528 0.474 0.948 0.316 2.37-0.474 3.793zM256.316 152.178c0.474-1.106 0.79-2.055 0.79-2.845 0-0.948-0.158-1.58-0.474-2.054-0.316-0.632-0.948-1.106-1.896-1.422-0.632-0.316-1.106-0.316-1.58-0.158s-0.948 0.474-1.264 0.948c-0.316 0.474-0.632 0.948-0.79 1.422-0.158 0.316-0.316 0.948-0.474 1.58s-0.316 1.264-0.316 1.58c0 1.422 0.158 2.212 0.632 2.686s0.79 0.632 1.264 0.948c0.632 0.316 1.106 0.316 1.58 0.158 0.948-0.474 1.738-1.264 2.528-2.845z"></path>
<path fill="#000" d="M266.588 162.291c0 0-0.158 0-0.316 0.158s-0.474 0.158-0.632 0.316c0 0-0.158 0-0.158 0-1.896-1.422-3.951-2.686-6.005-3.951-0.158 0-0.158-0.158 0-0.316 0-0.158 0.158-0.158 0.474-0.158 1.896 0.158 3.476 0.158 4.899-0.158 0.948-0.158 1.738-0.316 2.212-0.632s0.948-0.632 1.264-1.106c0.316-0.474 0.474-1.106 0.316-1.738s-0.79-1.422-1.738-2.055c-1.106-0.79-2.212-1.106-3.003-0.948 0 0-0.158 0-0.158 0-0.158-0.158-0.158-0.158-0.158-0.158 0-0.158 0.316-0.158 0.79-0.316 0.474 0 0.79 0 1.106 0 0.948 0.158 1.738 0.474 2.686 1.106s1.58 1.422 1.896 2.055c0.316 0.79 0.158 1.422-0.316 2.055-0.316 0.474-0.79 0.79-1.264 1.106-1.106 0.474-2.212 0.79-3.318 0.79-1.264 0.158-2.37 0.158-3.635 0.158 0 0-0.158 0-0.158 0s0 0.158 0.158 0.158c0.632 0.474 1.264 0.79 2.055 1.264 1.264 0.79 2.055 1.422 2.686 1.738 0.158 0.474 0.316 0.474 0.316 0.632 0.158 0 0.158 0 0 0z"></path>
<path fill="#000" d="M275.121 170.825c0 0-0.158 0 0 0-1.422-1.264-2.686-2.528-4.109-3.635 0 0 0-0.158 0-0.158s0.158-0.158 0.158-0.158c0 0 0.158 0 0.158 0 0.474 0.316 0.948 0.79 1.422 1.264 0.158 0.158 0.316 0 0.474-0.158 0 0 0.79-0.79 2.212-2.37s2.212-2.37 2.212-2.528c0.474-0.474 0.79-0.79 0.79-1.106 0.158-0.316 0-0.632-0.474-1.106-0.158-0.158-0.474-0.316-0.632-0.632 0 0-0.158-0.158 0-0.158 0 0 0.158-0.158 0.158-0.158s0.158 0 0.158 0c0.316 0.316 0.632 0.474 0.948 0.79 0.632 0.632 1.106 1.106 1.422 1.264s0.474 0.316 0.474 0.316c0.158 0 0.158 0.158 0 0.158 0 0-0.79 0.79-2.528 2.528s-2.528 2.528-2.686 2.686-1.264 1.422-0.948 1.738c0.316 0.316 0.79 0.79 1.106 1.106 0 0 0 0.158 0 0.158-0.158 0-0.316 0-0.316 0.158z"></path>
</svg>
