<svg width="24" height="24" viewBox="0 0 24 24" fill="black" class="styles_iconClass__1EYs3">
  <path fill-rule="evenodd" clip-rule="evenodd" d="M16 10.5C16 13.5376 13.5376 16 10.5 16C7.46243 16 5 13.5376 5 10.5C5 7.46243 7.46243 5 10.5 5C13.5376 5 16 7.46243 16 10.5ZM15.3873 16.1891C14.0746 17.3178 12.367 18 10.5 18C6.35786 18 3 14.6421 3 10.5C3 6.35786 6.35786 3 10.5 3C14.6421 3 18 6.35786 18 10.5C18 12.0542 17.5273 13.4979 16.7177 14.6954L21.5423 18.8307C21.9616 19.1901 22.0101 19.8214 21.6507 20.2407C21.2913 20.66 20.66 20.7086 20.2407 20.3492L15.3873 16.1891Z"></path>
</svg>