<svg viewBox="0 0 64 64"><g data-name="Layer 3" id="Layer_3"><path d="M1,51H63a0,0,0,0,1,0,0v0a4,4,0,0,1-4,4H5a4,4,0,0,1-4-4v0A0,0,0,0,1,1,51Z" style="fill:#f97878"/><rect height="16" style="fill:#f7d1c6" width="50" x="7" y="35"/><path d="M35.37,11.073c-1.184.853-2.3,1.774-3.385,2.727a43.123,43.123,0,0,0-3.4-2.792,10.68,10.68,0,0,0-13.559.9,9.621,9.621,0,0,0-.916,13.009A52.5,52.5,0,0,0,31.97,39C39.3,35.132,45.432,30.539,49.9,24.928a9.58,9.58,0,0,0-.941-12.978A10.727,10.727,0,0,0,35.37,11.073Z" style="fill:#f2a7b1"/><path d="M17.106,24.918a9.621,9.621,0,0,1,.916-13.009,10.525,10.525,0,0,1,5.818-2.8,10.656,10.656,0,0,0-8.818,2.8,9.621,9.621,0,0,0-.916,13.009A52.5,52.5,0,0,0,31.97,39c.5-.265.985-.543,1.476-.815A51.429,51.429,0,0,1,17.106,24.918Z" style="fill:#e8859b"/><path d="M7,35V49a2,2,0,0,0,2-2V46a3,3,0,0,1,6,0v1a2,2,0,0,0,4,0V45a2,2,0,0,1,2-2h1a3,3,0,0,1,3,3v1a2,2,0,0,0,4,0V46a3,3,0,0,1,6,0v1a2,2,0,0,0,4,0V46a3,3,0,0,1,6,0v1a2,2,0,0,0,4,0V46a3,3,0,0,1,6,0v1a2,2,0,0,0,2,2V35Z" style="fill:#f4b19f"/><path d="M9,31a4,4,0,0,0-4,4V45a2,2,0,0,0,2,2H7a2,2,0,0,0,2-2V44a3,3,0,0,1,3-3h0a3,3,0,0,1,3,3v1a2,2,0,0,0,2,2h0a2,2,0,0,0,2-2V43a2,2,0,0,1,2-2h1a3,3,0,0,1,3,3v1a2,2,0,0,0,2,2h0a2,2,0,0,0,2-2V44a3,3,0,0,1,3-3h0a3,3,0,0,1,3,3v1a2,2,0,0,0,2,2h0a2,2,0,0,0,2-2V44a3,3,0,0,1,3-3h0a3,3,0,0,1,3,3v1a2,2,0,0,0,2,2h0a2,2,0,0,0,2-2V44a3,3,0,0,1,3-3h0a3,3,0,0,1,3,3v1a2,2,0,0,0,2,2h0a2,2,0,0,0,2-2V35a4,4,0,0,0-4-4Z" style="fill:#f97878"/><path d="M57,44a2,2,0,0,1-2-2V41a3,3,0,0,0-6,0v1a2,2,0,0,1-4,0V41a3,3,0,0,0-6,0v1a2,2,0,0,1-4,0V41a3,3,0,0,0-6,0v1a2,2,0,0,1-4,0V41a3,3,0,0,0-3-3H21a2,2,0,0,0-2,2v2a2,2,0,0,1-4,0V41a3,3,0,0,0-6,0v1a2,2,0,0,1-4,0v3a2,2,0,0,0,4,0V44a3,3,0,0,1,6,0v1a2,2,0,0,0,4,0V43a2,2,0,0,1,2-2h1a3,3,0,0,1,3,3v1a2,2,0,0,0,4,0V44a3,3,0,0,1,6,0v1a2,2,0,0,0,4,0V44a3,3,0,0,1,6,0v1a2,2,0,0,0,4,0V44a3,3,0,0,1,6,0v1a2,2,0,0,0,4,0V42A2,2,0,0,1,57,44Z" style="fill:#ed5d5d"/><path d="M26.383,18.076a1,1,0,0,0-1.09.217L23,20.586l-2.293-2.293A1,1,0,0,0,19,19v6a1,1,0,0,0,2,0V21.414l1.293,1.293a1,1,0,0,0,1.414,0L25,21.414V25a1,1,0,0,0,2,0V19A1,1,0,0,0,26.383,18.076Z" style="fill:#f97878"/><path d="M44,26a1,1,0,0,0,1-1V19a1,1,0,0,0-1.707-.707L41,20.586l-2.293-2.293A1,1,0,0,0,37,19v6a1,1,0,0,0,2,0V21.414l1.293,1.293a1,1,0,0,0,1.414,0L43,21.414V25A1,1,0,0,0,44,26Z" style="fill:#f97878"/><path d="M32,18a4,4,0,1,0,4,4A4,4,0,0,0,32,18Zm0,6a2,2,0,1,1,2-2A2,2,0,0,1,32,24Z" style="fill:#f97878"/></g></svg>