<?xml version="1.0" encoding="UTF-8"?><!DOCTYPE svg PUBLIC "-//W3C//DTD SVG 1.1//EN" "http://www.w3.org/Graphics/SVG/1.1/DTD/svg11.dtd"><svg xmlns="http://www.w3.org/2000/svg" xmlns:xlink="http://www.w3.org/1999/xlink"><symbol id="icon-burger" viewBox="0 0 24 24">
    <path fill-rule="evenodd" clip-rule="evenodd" d="M4 6a1 1 0 0 1 1-1h9a1 1 0 1 1 0 2H5a1 1 0 0 1-1-1zm0 12a1 1 0 0 1 1-1h9a1 1 0 1 1 0 2H5a1 1 0 0 1-1-1zm1-7a1 1 0 1 0 0 2h14a1 1 0 1 0 0-2H5z"/>
</symbol><symbol id="icon-facebook" viewBox="0 0 10 19">
    <title>
        facebook
    </title>
    <path d="M9.766.157v2.946H8.014c-.64 0-1.071.134-1.295.402-.223.268-.335.67-.335 1.205v2.11h3.27l-.435 3.303H6.384v8.471H2.97v-8.47H.123V6.82H2.97V4.387c0-1.384.387-2.457 1.161-3.22C4.904.404 5.934.023 7.222.023c1.093 0 1.941.045 2.544.134z" fill-rule="evenodd"/>
</symbol><symbol id="icon-search" viewBox="0 0 24 24">
    <path fill-rule="evenodd" clip-rule="evenodd" d="M16 10.5a5.5 5.5 0 1 1-11 0 5.5 5.5 0 0 1 11 0zm-.613 5.69a7.5 7.5 0 1 1 1.33-1.494l4.825 4.135a1 1 0 0 1-1.301 1.518l-4.854-4.16z"/>
</symbol></svg>