<?xml version="1.0" encoding="UTF-8"?><!DOCTYPE svg PUBLIC "-//W3C//DTD SVG 1.1//EN" "http://www.w3.org/Graphics/SVG/1.1/DTD/svg11.dtd"><svg xmlns="http://www.w3.org/2000/svg" xmlns:xlink="http://www.w3.org/1999/xlink"><symbol id="icon-about-us" viewBox="0 0 480 448">
    <title/>
    <path d="M148.25 224c-26 .75-49.5 12-66.25 32H48.5C23.5 256 0 244 0 216.25 0 196-.75 128 31 128c5.25 0 31.25 21.25 65 21.25 11.5 0 22.5-2 33.25-5.75-.75 5.5-1.25 11-1.25 16.5 0 22.75 7.25 45.25 20.25 64zM416 383.25c0 40.5-26.75 64.75-66.75 64.75h-218.5c-40 0-66.75-24.25-66.75-64.75C64 326.75 77.25 240 150.5 240c8.5 0 39.5 34.75 89.5 34.75S321 240 329.5 240c73.25 0 86.5 86.75 86.5 143.25zM160 64c0 35.25-28.75 64-64 64S32 99.25 32 64 60.75 0 96 0s64 28.75 64 64zm176 96c0 53-43 96-96 96s-96-43-96-96 43-96 96-96 96 43 96 96zm144 56.25C480 244 456.5 256 431.5 256H398c-16.75-20-40.25-31.25-66.25-32 13-18.75 20.25-41.25 20.25-64 0-5.5-.5-11-1.25-16.5 10.75 3.75 21.75 5.75 33.25 5.75 33.75 0 59.75-21.25 65-21.25 31.75 0 31 68 31 88.25zM448 64c0 35.25-28.75 64-64 64s-64-28.75-64-64 28.75-64 64-64 64 28.75 64 64z"/>
</symbol><symbol id="icon-arrow" viewBox="0 0 24 24">
    <path d="M5 12h19" stroke-width="2" stroke-linecap="round"/>
    <path d="M5 12l5-5" stroke-width="2" stroke-linecap="round"/>
    <path d="M5 12l5 5" stroke-width="2" stroke-linecap="round"/>
</symbol><symbol id="icon-burger" viewBox="0 0 24 24">
    <path fill-rule="evenodd" clip-rule="evenodd" d="M4 6a1 1 0 0 1 1-1h9a1 1 0 1 1 0 2H5a1 1 0 0 1-1-1zm0 12a1 1 0 0 1 1-1h9a1 1 0 1 1 0 2H5a1 1 0 0 1-1-1zm1-7a1 1 0 1 0 0 2h14a1 1 0 1 0 0-2H5z"/>
</symbol><symbol id="icon-close-button" viewBox="0 0 24 24">
    <path fill-rule="evenodd" clip-rule="evenodd" d="M12 13.414l5.293 5.293 1.414-1.414L13.414 12l5.293-5.293-1.414-1.414L12 10.586 6.707 5.293 5.293 6.707 10.586 12l-5.293 5.293 1.414 1.414L12 13.414z"/>
</symbol><symbol id="icon-contactIcon" viewBox="0 0 20 16">
    <path d="M2.87 9.5v1.9c.007 1.336.638 1.128 1.105.727L6.67 9.695v1.23c0 1.154.266 1.425 1.425 1.425h4.274s2.475 2.91 2.494 2.89c.357.435 1.321.287 1.306-.515V12.35h1.425c1.164 0 1.425-.29 1.425-1.425V3.8c0-1.14-.28-1.425-1.424-1.425h-4.75v-.95C12.845.252 12.626 0 11.418 0H1.445C.324 0 .02.242.02 1.425V7.6c0 1.159.26 1.9 1.425 1.9H2.87zm11.875 1.425v2.242l-1.9-2.242H8.57c-.357 0-.475-.128-.475-.475V4.275c0-.318.147-.475.475-.475h8.55c.327 0 .474.176.474.447v6.203c0 .343-.17.475-.475.475h-2.374z"/>
</symbol><symbol id="icon-facebook" viewBox="0 0 10 19">
    <title>
        facebook
    </title>
    <path d="M9.766.157v2.946H8.014c-.64 0-1.071.134-1.295.402-.223.268-.335.67-.335 1.205v2.11h3.27l-.435 3.303H6.384v8.471H2.97v-8.47H.123V6.82H2.97V4.387c0-1.384.387-2.457 1.161-3.22C4.904.404 5.934.023 7.222.023c1.093 0 1.941.045 2.544.134z" fill-rule="evenodd"/>
</symbol><symbol id="icon-favourite" viewBox="0 0 24 24">
    <path stroke-width="2" d="M4 9.2C4 6.8 5.9 5 8.4 5c1.4 0 2.7.6 3.6 1.7.9-1 2.2-1.7 3.6-1.7C18.1 5 20 6.8 20 9.2c0 1.6-1 3-2.2 4.3l-2.9 2.8-2.4 2.2-.5.5-.5-.5L9 16.3l-2.9-2.8C5 12.1 4 10.8 4 9.2z" clip-rule="evenodd"/>
</symbol><symbol id="icon-instagram" viewBox="0 0 128 128">
    <path class="cls-1" d="M83 23a22 22 0 0 1 22 22v38a22 22 0 0 1-22 22H45a22 22 0 0 1-22-22V45a22 22 0 0 1 22-22h38m0-8H45a30.09 30.09 0 0 0-30 30v38a30.09 30.09 0 0 0 30 30h38a30.09 30.09 0 0 0 30-30V45a30.09 30.09 0 0 0-30-30z"/>
    <path class="cls-1" d="M90.14 32a5.73 5.73 0 1 0 5.73 5.73A5.73 5.73 0 0 0 90.14 32z"/>
    <path class="cls-1" d="M64.27 46.47A17.68 17.68 0 1 1 46.6 64.14a17.7 17.7 0 0 1 17.67-17.67m0-8A25.68 25.68 0 1 0 90 64.14a25.68 25.68 0 0 0-25.73-25.67z"/>
</symbol><symbol id="icon-logo" viewBox="0 0 448 448">
    <title/>
    <path d="M28.445 239.723v-42.192h12.326c1.58 0 3.003.158 4.267.632s2.37 1.106 3.161 2.055c.948.948 1.58 2.212 2.054 3.951s.79 3.793.79 6.163c0 2.055-.158 3.793-.474 5.373-.316 1.422-.79 2.845-1.422 3.951s-1.738 2.054-3.003 2.528c-1.264.632-2.845.79-4.741.79H37.61v16.751h-9.166zm9.165-34.449v10.114h1.58c.316 0 .632-.158.948-.158.316-.158.632-.316.79-.474s.316-.474.474-.948c.158-.316.316-.79.316-1.422s.158-1.264.158-2.212c0-1.896-.316-3.161-.79-3.793s-1.264-1.106-2.528-1.106h-.948z"/>
    <path d="M70.795 197.531l4.583 42.192h-9.007l-.632-6.321h-4.741l-.632 6.321h-9.007l4.741-42.192h14.697zm-6.953 7.901h-.79l-1.264 20.227h3.318l-1.264-20.227z"/>
    <path d="M89.284 240.198c-4.267 0-7.427-.948-9.166-3.003-1.896-1.896-2.686-5.057-2.686-9.166v-4.109h9.166v3.793c0 2.686.79 4.109 2.212 4.109.632 0 1.264-.316 1.58-.79.474-.474.632-1.264.632-2.055 0-1.106-.158-2.054-.474-2.845s-.79-1.58-1.422-2.212c-.632-.632-1.58-1.738-3.003-2.845l-3.951-3.476c-3.16-2.686-4.741-5.847-4.741-9.324 0-3.793.948-6.479 2.845-8.376s4.583-2.686 7.901-2.686h1.738c.79 0 1.896.158 3.318.632s2.528 1.106 3.635 2.055c1.106.948 1.896 2.212 2.37 3.793s.79 3.635.79 6.005h-9.481v-2.528c0-.474-.158-.948-.632-1.264-.316-.316-.79-.632-1.264-.632-.632 0-1.106.158-1.58.632s-.632.79-.632 1.422c0 1.264.948 2.528 2.686 3.951l5.689 4.583c.948.79 1.738 1.422 2.37 2.212s1.264 1.58 1.58 2.212c.474.79.79 1.422.948 2.054s.474 1.264.474 2.054c.158.79.158 1.264.158 1.58v1.422c0 1.422-.158 2.845-.316 4.109s-.474 2.37-1.106 3.476c-.474 1.106-1.106 2.055-1.896 2.845s-1.896 1.422-3.16 1.738c-1.422.316-2.845.632-4.583.632z"/>
    <path d="M101.61 197.531h20.385v8.059h-5.531v33.975h-9.324V205.59h-5.531v-8.059z"/>
    <path d="M134.321 220.444v19.121h-9.481V197.53h14.222c1.422 0 2.686.158 3.793.632s1.896.948 2.528 1.58 1.106 1.422 1.422 2.528.632 2.055.632 3.16c.158 1.106.158 2.37.158 3.951v1.896c0 .474-.158 1.106-.316 1.896s-.474 1.422-.632 1.896-.79.948-1.422 1.58c-.632.474-1.422.948-2.212 1.106.79.158 1.58.474 2.212.948s.948.948 1.264 1.58c.316.632.474 1.264.474 1.738.158.474.158 1.106.158 1.738 0 6.953 0 12.326-.158 15.803h-9.166v-16.435c0-.632 0-1.106-.158-1.58-.158-.316-.316-.632-.79-.79-.316-.158-.632-.316-1.106-.316-.316.158-.79 0-1.422 0zm0-15.012v7.901h2.37c1.264 0 1.896-1.264 1.896-3.793 0-1.738-.316-2.845-.79-3.318s-1.422-.79-3.003-.79h-.474z"/>
    <path d="M164.662 239.723h-8.849v-13.906l-7.269-28.287h9.166l2.528 14.222 2.528-14.222h9.166l-7.427 28.287v13.906z"/>
    <path d="M277.175 240.198c-4.267 0-7.427-.948-9.166-3.003-1.896-1.896-2.686-5.057-2.686-9.166v-4.109h9.166v3.793c0 2.686.79 4.109 2.212 4.109.632 0 1.264-.316 1.58-.79.474-.474.632-1.264.632-2.055 0-1.106-.158-2.054-.474-2.845s-.79-1.58-1.422-2.212-1.58-1.58-3.003-2.845l-3.951-3.476c-3.161-2.686-4.741-5.847-4.741-9.166 0-3.793.948-6.479 2.845-8.375s4.583-2.686 7.901-2.686h1.738c.79 0 1.896.158 3.318.632s2.528 1.106 3.635 2.054c1.106.948 1.896 2.212 2.37 3.793s.79 3.635.79 6.005h-9.482v-2.528c0-.474-.158-.948-.632-1.264-.316-.316-.79-.632-1.264-.632-.632 0-1.106.158-1.58.632-.474.316-.632.79-.632 1.422 0 1.264.948 2.528 2.686 3.951l5.689 4.583c.948.79 1.738 1.422 2.37 2.212s1.264 1.58 1.58 2.212c.474.79.79 1.422.948 2.055.316.632.474 1.264.474 2.054.158.79.158 1.264.158 1.58v1.422c0 1.422-.158 2.845-.316 3.951-.158 1.264-.474 2.37-1.106 3.476s-1.106 2.055-1.896 2.845c-.79.79-1.896 1.264-3.161 1.738-1.422.316-3.003.632-4.583.632z"/>
    <path d="M289.501 197.689h20.385v8.059h-5.531v33.975h-9.324v-33.975H289.5v-8.059z"/>
    <path d="M329.007 197.689l4.583 42.035h-9.007l-.632-6.321h-4.741l-.632 6.321h-8.849l4.741-42.035h14.538zm-6.953 7.901h-.79L320 225.817h3.318l-1.264-20.227z"/>
    <path d="M333.59 197.689h20.385v8.059h-5.531v33.975h-9.324v-33.975h-5.531v-8.059z"/>
    <path d="M356.662 239.723v-42.035h9.007v42.035h-9.007z"/>
    <path d="M369.778 228.346v-20.069c0-3.476.948-6.163 2.845-8.217s4.741-2.845 8.533-3.003c3.951 0 6.795 1.106 8.691 3.003s2.845 4.583 2.845 8.217v20.069c0 1.738-.158 3.318-.632 4.583-.474 1.422-1.106 2.686-1.896 3.793-.948 1.106-2.055 1.896-3.635 2.528s-3.161.948-5.215.79c-2.055 0-3.793-.158-5.373-.79s-2.686-1.422-3.635-2.528a8.61 8.61 0 0 1-1.896-3.793c-.474-1.264-.632-2.845-.632-4.583zm11.378 3.476c.316 0 .632 0 .948-.158s.474-.316.632-.632c.158-.316.316-.474.316-.79s.158-.632.158-.948v-.948-.948-17.067-.632-.79-.632c0-.316 0-.474-.158-.79 0-.158-.158-.316-.158-.632s-.158-.474-.316-.632-.158-.316-.316-.474c-.158-.158-.316-.316-.474-.316s-.474-.158-.79-.158c-.316 0-.632 0-.948.158s-.474.316-.632.632c-.158.316-.316.474-.474.79-.158.158-.158.474-.158.948v21.017c0 .474.158.79.158 1.106.158.316.158.632.316.79.158.316.316.474.632.632.632.474.948.474 1.264.474z"/>
    <path d="M419.398 197.689v42.035h-9.007l-4.583-21.018v21.018h-9.166v-42.035h9.481l4.267 20.069v-20.069h9.007z"/>
    <path d="M222.341 210.173c-.948 1.106-1.896 2.055-2.686 3.003-1.106 1.264-2.37 2.212-3.318 3.635-.948 1.58-2.37 2.37-3.793 3.16-1.106.632-2.37 1.422-3.635 2.212-2.37-2.528-4.741-4.899-7.111-7.269-6.005-6.005-12.01-12.01-18.015-18.173l-.79-.79c-1.106-1.106-1.106-2.528 0-3.635.79-.948 1.738-1.738 2.528-2.686 1.896-2.055 3.951-3.951 5.847-6.005 1.422-1.58 3.16-1.422 4.583 0 5.373 5.373 10.746 10.904 16.277 16.277 3.003 3.003 6.163 6.005 9.166 9.166.316.474.632.79.948 1.106z"/>
    <path d="M218.706 231.664c0-.158.158-.316.158-.474 1.106-2.212 2.212-4.425 3.318-6.479.474-.474 1.106-.79 1.58-1.264 1.896-2.055 3.635-4.109 5.689-6.163.316.316.632.632.948.79l12.168 12.168 10.272 10.272 1.106 1.106c.948 1.264.948 2.37-.158 3.476l-4.266 4.266-4.266 4.267c-1.422 1.422-2.845 1.422-4.425 0l-14.854-14.854-6.637-6.637c-.158 0-.316-.316-.632-.474z"/>
    <path d="M222.499 222.183c-1.58-1.422-3.003-2.686-4.583-4.109a97360.403 97360.403 0 0 1 37.61-41.402c.79.79 1.58 1.422 2.212 2.055s1.422 1.264 2.212 2.054c-12.484 13.906-24.968 27.496-37.452 41.402z"/>
    <path d="M180.78 263.269c-.474-.632-.474-1.264-.316-2.055.474-2.055 1.422-3.793 2.528-5.531 1.58-2.37 3.318-4.583 5.373-6.637 3.635-3.793 7.743-7.269 11.694-10.746 3.793-3.318 7.427-6.637 11.062-9.956 2.055-1.896 4.267-3.951 6.321-5.847.316-.158.474-.474.948-.474-.158.316-.316.632-.474.79-2.686 3.793-5.373 7.585-8.217 11.22-3.793 5.215-7.743 10.272-11.694 15.487a79.41 79.41 0 0 1-6.795 7.743c-2.212 2.37-4.741 4.267-7.901 5.531-.79.632-1.58.948-2.528.474z"/>
    <path d="M178.41 260.267c-.158-.316-.474-.79-.474-1.106-1.738-5.057-.948-9.639 2.528-13.59 2.212-2.528 4.583-4.583 7.269-6.637 5.847-4.583 12.168-8.691 18.489-12.642l9.956-6.163c.316-.158.474-.316.79-.316l.158.158c-.158.158-.316.474-.474.632-2.212 2.055-4.267 4.109-6.479 6.005-2.528 2.212-4.899 4.583-7.427 6.795l-7.111 6.163c-3.318 2.845-6.637 5.847-9.639 9.166-3.161 3.318-5.847 7.111-7.269 11.536h-.316z"/>
    <path d="M183.783 265.165c.158-.158.316-.316.474-.316 4.267-1.896 7.585-4.899 10.588-8.375 6.953-8.059 13.274-16.593 19.437-25.284 1.896-2.528 3.793-5.215 5.689-7.743l.474-.474c.158 0 .158.158.316.158-.158.316-.158.632-.316.948-1.738 3.476-3.476 6.795-5.057 10.272-2.686 5.531-5.531 10.904-8.691 16.277-2.212 3.793-4.583 7.427-7.585 10.746-3.951 4.425-8.691 5.689-14.38 4.266-.158 0-.158-.158-.316-.158-.316-.158-.474-.158-.632-.316z"/>
    <path d="M249.205 253.155l4.109-4.109c.158.158.474.316.79.474l10.904 8.059c.79.632 1.422 1.264 2.055 1.896 1.58 2.055 1.422 5.373-.948 7.427-1.896 1.58-5.373 1.58-7.269-.632l-3.793-4.741c-1.896-2.528-3.635-5.057-5.531-7.743-.158-.316-.158-.474-.316-.632z"/>
    <path d="M187.891 184.099c-1.422 1.422-2.686 2.845-4.109 4.267-.632-.474-1.106-.79-1.738-1.264-3.476-2.528-7.111-5.215-10.588-7.743-1.264-.948-2.055-2.212-2.37-3.793-.474-2.212 1.264-5.215 3.793-5.847 2.212-.474 4.109-.158 5.689 1.738 1.106 1.422 2.212 2.686 3.16 4.109 1.896 2.528 3.635 5.057 5.531 7.585.316.158.474.632.632.948z"/>
    <path d="M256.948 175.249c.79-1.106 1.738-1.896 3.003-1.738 1.422.158 2.37 1.106 2.686 2.37.474 1.422-.158 2.37-1.264 3.318a52.448 52.448 0 0 1-4.425-3.951z"/>
    <path d="M134.321 282.548v4.425h-1.422v-4.425l-5.215-8.376h1.422l4.425 7.269 4.425-7.269h1.422l-5.057 8.376z"/>
    <path d="M140.01 280.494c0-3.793 2.845-6.637 6.795-6.637s6.795 2.845 6.795 6.637-2.845 6.637-6.795 6.637c-3.951 0-6.795-2.845-6.795-6.637zm12.168 0a5.328 5.328 0 0 0-5.373-5.373c-3.16 0-5.373 2.212-5.373 5.373 0 3.003 2.37 5.373 5.373 5.373s5.373-2.212 5.373-5.373z"/>
    <path d="M156.444 281.442v-7.427h1.422v7.269c0 3.003 1.422 4.425 3.951 4.425s3.951-1.422 3.951-4.425v-7.269h1.264v7.427c0 3.635-2.054 5.689-5.215 5.689s-5.373-1.896-5.373-5.689z"/>
    <path d="M179.99 286.973l-3.003-4.109h-4.582v4.109h-1.422v-12.958h4.899c3.318 0 5.215 1.738 5.215 4.425 0 2.055-1.106 3.476-3.003 4.109l3.161 4.425h-1.264zm0-8.534c0-2.055-1.422-3.318-3.951-3.318h-3.476v6.479h3.476c2.528.158 3.951-1.106 3.951-3.161z"/>
    <path d="M188.207 285.393l.474-1.106c.948.948 2.528 1.58 4.267 1.58 2.37 0 3.476-.948 3.476-2.212 0-3.476-7.901-1.422-7.901-6.163 0-1.896 1.422-3.476 4.741-3.476 1.422 0 3.003.474 3.951 1.106l-.474 1.106a6.02 6.02 0 0 0-3.476-1.106c-2.37 0-3.476 1.106-3.476 2.37 0 3.476 7.901 1.422 7.901 6.163 0 1.896-1.58 3.476-4.741 3.476-1.896 0-3.793-.632-4.741-1.738z"/>
    <path d="M218.39 274.015l-4.425 12.958h-1.422l-3.793-11.062-3.793 11.062h-1.422l-4.425-12.958h1.422l3.793 11.062 3.793-11.062h1.264l3.793 11.22 3.793-11.22h1.422z"/>
    <path d="M230.084 285.867v1.106h-9.166v-12.958h8.849v1.106h-7.427v4.583h6.637v1.106h-6.637v4.741h7.743z"/>
    <path d="M242.41 285.867v1.106h-9.166v-12.958h8.849v1.106h-7.427v4.583h6.637v1.106h-6.637v4.741h7.743z"/>
    <path d="M248.099 275.279h-4.583v-1.106h10.43v1.106h-4.583v11.694h-1.264v-11.694z"/>
    <path d="M259.793 285.393l.474-1.106c.948.948 2.528 1.58 4.266 1.58 2.37 0 3.476-.948 3.476-2.212 0-3.476-7.901-1.422-7.901-6.163 0-1.896 1.422-3.476 4.741-3.476 1.422 0 3.003.474 3.951 1.106l-.474 1.106a6.02 6.02 0 0 0-3.476-1.106c-2.37 0-3.476 1.106-3.476 2.37 0 3.476 7.901 1.422 7.901 6.163 0 1.896-1.58 3.476-4.741 3.476-1.896 0-3.793-.632-4.741-1.738z"/>
    <path d="M282.39 278.439c0 2.686-2.055 4.425-5.215 4.425h-3.476v4.109h-1.422v-12.958h4.899c3.318 0 5.215 1.738 5.215 4.425zm-1.264 0c0-2.055-1.422-3.318-3.951-3.318h-3.476v6.479h3.476c2.528.158 3.951-1.106 3.951-3.161z"/>
    <path d="M284.445 280.494c0-3.793 2.845-6.637 6.795-6.637s6.795 2.845 6.795 6.637-2.845 6.637-6.795 6.637c-3.951 0-6.795-2.845-6.795-6.637zm12.167 0a5.328 5.328 0 0 0-5.373-5.373c-3.161 0-5.373 2.212-5.373 5.373a5.328 5.328 0 0 0 5.373 5.373c3.161 0 5.373-2.212 5.373-5.373z"/>
    <path d="M303.408 275.279h-4.583v-1.106h10.43v1.106h-4.583v11.694h-1.264v-11.694z"/>
    <path d="M161.975 164.03c1.58-.632 3.318-1.106 4.109 0 .948 1.106.632 2.845-1.422 4.583-.632.632-1.264 1.106-2.37 1.58h-.316c-.474-.316-1.106-.79-1.58-1.106-.158 0 0-.158.158-.158.948.632 2.686.948 4.267-.632.948-.79 1.58-2.055.79-3.003-.948-1.106-2.528-.632-4.109 0s-3.003 1.264-4.109.158c-1.106-1.106-.158-3.161 1.264-4.425.632-.474 1.264-.948 2.212-1.422.158-.158.316-.158.474 0l1.106 1.106-.158.158c-.632-.632-2.054-.948-3.635.474-1.422 1.264-1.264 2.528-.632 3.16.79.79 2.37.158 3.951-.474z"/>
    <path d="M178.094 158.183c.158 0 .158.158 0 0-.474.474-1.106.79-1.896 1.264s-1.422.948-1.896 1.264l-.158-.158c1.264-.79 1.422-1.106.948-1.896-1.264-1.896-2.528-3.951-3.793-5.847-.474-.79-.79-.79-2.212.158l-.158-.158c.632-.316 1.422-.79 2.212-1.264.948-.474 1.58-.948 2.212-1.422l.158.158c-1.422.79-1.58 1.106-1.106 1.896 1.264 1.896 2.37 3.951 3.635 5.847.474.948.79.948 2.055.158z"/>
    <path d="M194.528 141.59c-1.106.316-1.422.79-1.264 1.738l2.37 7.585-.158.158c-3.476-1.896-7.427-3.476-11.378-4.741-.158 0-.316-.158-.474-.158a108.44 108.44 0 0 1 2.686 6.321c.474.948.948 1.106 1.896.632 0 0 .158.158 0 .158-.474.158-.948.316-1.58.632s-1.106.474-1.58.79c0 0-.158-.158 0-.158.948-.474 1.106-.948.79-1.896l-2.845-6.637c-.632-.158-1.106 0-1.58.158 0 0-.158-.158 0-.158.474-.158.948-.474 1.264-.632s.79-.316.948-.474c.316-.158.316 0 1.264.316 3.476 1.264 6.953 2.686 10.114 4.267-.632-2.055-1.264-4.267-1.896-6.321-.316-.948-.79-1.264-1.896-.79 0 0-.158-.158 0-.158.474-.158 1.106-.316 1.738-.474s1.264-.474 1.738-.632c-.158.158 0 .474-.158.474z"/>
    <path d="M212.227 138.746c.316.158.316.158.316.316.158.474.158 1.106.316 1.58 0 0-.158.158-.158 0-.632-1.58-2.686-2.054-5.057-1.738-3.318.474-5.215 2.37-4.741 4.899.632 2.845 3.635 4.583 6.479 4.266 1.738-.158 3.16-.948 3.793-2.686h.158c0 .474-.158 1.106-.158 1.58 0 .316 0 .316-.316.316-1.106.474-2.37.79-3.476.948-4.741.632-7.111-1.58-7.585-3.793-.632-2.845 2.686-5.373 6.637-5.847 1.422-.316 3.003-.158 3.793.158z"/>
    <path d="M228.346 145.857c-.158.474-.316 1.264-.474 1.896 0 .158-.158.158-.316.158a63.657 63.657 0 0 0-7.743-.474v-.158c1.422 0 1.738-.158 1.738-.948.158-2.37.158-4.583.316-6.953 0-.79-.158-1.106-1.896-1.106v-.158c2.845 0 5.531.158 8.375.474.158 0 .158 0 .158.158 0 .632-.158 1.264-.158 1.738h-.158c.158-1.106-.632-1.738-1.896-1.896-.474 0-.948 0-1.422-.158-1.58-.158-1.896 0-1.896.948s-.158 2.055-.158 3.003c.948 0 1.738.158 2.686.158 1.264.158 1.738-.158 1.738-.948h.316c0 .632-.158.79-.158 1.106 0 .474 0 .79-.158 1.422h-.158c.158-.948-.316-1.264-1.58-1.422-.79 0-1.738-.158-2.528-.158 0 1.106-.158 2.37-.158 3.476 0 .79.158.948 1.58 1.106.632 0 1.106.158 1.738.158.948.158 1.896-.632 2.212-1.738-.316.158 0 .316 0 .316z"/>
    <path d="M243.832 150.44s0 .158-.158.158l-.474.474h-.158c-2.212-.79-4.425-1.264-6.795-1.896-.158 0-.158-.158-.158-.316s.158-.158.316-.158c1.738-.474 3.318-.948 4.425-1.738.79-.474 1.422-.948 1.896-1.264.316-.316.632-.948.79-1.422.158-.632.158-1.264-.158-1.738-.316-.632-1.106-.948-2.212-1.264-1.264-.316-2.37-.316-3.003.158h-.158c-.158 0-.158-.158-.158-.158 0-.158.316-.316.632-.474s.79-.316 1.106-.316 1.896 0 2.845.158c1.106.316 1.896.79 2.37 1.422s.632 1.264.316 2.055c-.158.474-.474.948-.948 1.422-.79.79-1.738 1.422-2.845 1.896s-2.212.948-3.318 1.264h-.158s0 .158.158.158c.79.158 1.422.316 2.212.632 1.264.316 2.37.632 3.003.79.316 0 .474 0 .632.158-.158 0 0 0 0 0z"/>
    <path d="M257.738 152.02c-.316.632-.632.948-.79 1.264-.316.316-.632.632-1.106.948-.79.474-1.58.79-2.37.79h-.948c-.158 0-.474-.158-.948-.316-.632-.316-.948-.474-1.264-.79 0 0-.316-.316-.632-.79-.316-.316-.474-.948-.632-1.738s0-1.738.474-2.686c.632-1.422 1.422-2.528 2.528-3.161.474-.316 1.106-.474 1.896-.316.632 0 1.422.158 1.896.474 1.106.474 1.896 1.422 2.37 2.528.474.948.316 2.37-.474 3.793zm-1.422.158c.474-1.106.79-2.055.79-2.845 0-.948-.158-1.58-.474-2.054-.316-.632-.948-1.106-1.896-1.422-.632-.316-1.106-.316-1.58-.158s-.948.474-1.264.948c-.316.474-.632.948-.79 1.422-.158.316-.316.948-.474 1.58s-.316 1.264-.316 1.58c0 1.422.158 2.212.632 2.686s.79.632 1.264.948c.632.316 1.106.316 1.58.158.948-.474 1.738-1.264 2.528-2.845z"/>
    <path d="M266.588 162.291s-.158 0-.316.158-.474.158-.632.316h-.158c-1.896-1.422-3.951-2.686-6.005-3.951-.158 0-.158-.158 0-.316 0-.158.158-.158.474-.158 1.896.158 3.476.158 4.899-.158.948-.158 1.738-.316 2.212-.632s.948-.632 1.264-1.106c.316-.474.474-1.106.316-1.738s-.79-1.422-1.738-2.055c-1.106-.79-2.212-1.106-3.003-.948h-.158l-.158-.158c0-.158.316-.158.79-.316h1.106c.948.158 1.738.474 2.686 1.106s1.58 1.422 1.896 2.055c.316.79.158 1.422-.316 2.055-.316.474-.79.79-1.264 1.106-1.106.474-2.212.79-3.318.79-1.264.158-2.37.158-3.635.158h-.158s0 .158.158.158c.632.474 1.264.79 2.055 1.264 1.264.79 2.055 1.422 2.686 1.738.158.474.316.474.316.632.158 0 .158 0 0 0z"/>
    <path d="M275.121 170.825s-.158 0 0 0c-1.422-1.264-2.686-2.528-4.109-3.635v-.158l.158-.158h.158c.474.316.948.79 1.422 1.264.158.158.316 0 .474-.158 0 0 .79-.79 2.212-2.37s2.212-2.37 2.212-2.528c.474-.474.79-.79.79-1.106.158-.316 0-.632-.474-1.106-.158-.158-.474-.316-.632-.632 0 0-.158-.158 0-.158l.158-.158h.158c.316.316.632.474.948.79.632.632 1.106 1.106 1.422 1.264s.474.316.474.316c.158 0 .158.158 0 .158l-2.528 2.528-2.686 2.686c-.158.158-1.264 1.422-.948 1.738l1.106 1.106v.158c-.158 0-.316 0-.316.158z"/>
</symbol><symbol id="icon-main" viewBox="0 0 32 32">
    <path d="M30.938 16L18 1.188C17.453.594 16.938 0 16 0s-1.453.594-2 1.188l-6 6.87V4a2 2 0 0 0-4 0v8.637L1.063 16C.406 16.734 0 17.188 0 18c0 1.016.797 2 2 2h2v10c0 1.1.9 2 2 2h20c1.1 0 2-.9 2-2V20h2c1.203 0 2-.984 2-2 0-.812-.406-1.266-1.062-2zM24 16v12h-4v-8h-8v8H8V16H6.373L16 4.979 25.627 16H24z"/>
</symbol><symbol id="icon-minus" viewBox="0 0 12 2">
    <path d="M12 2V0H0v2h12z"/>
</symbol><symbol id="icon-orderIcon" viewBox="0 0 22 18">
    <path d="M12.52 0a9 9 0 0 0-9 9h-3l3.89 3.89.07.14L8.52 9h-3c0-3.87 3.13-7 7-7s7 3.13 7 7-3.13 7-7 7c-1.93 0-3.68-.79-4.94-2.06l-1.42 1.42A8.954 8.954 0 0 0 12.52 18a9 9 0 1 0 0-18zm-1 5v5l4.28 2.54.72-1.21-3.5-2.08V5h-1.5z"/>
</symbol><symbol id="icon-person" viewBox="0 0 24 24">
    <g opacity=".5" stroke-width="2" stroke-linecap="round" stroke-linejoin="round">
        <path d="M4.773 15.517c.495-1.25 2.109-1.712 3.355-1.205 1.042.425 2.372.788 3.872.788s2.83-.363 3.872-.788c1.246-.507 2.86-.046 3.355 1.205l.69 1.747A2 2 0 0 1 18.059 20H5.942a2 2 0 0 1-1.86-2.736l.691-1.747z"/>
        <circle cx="12" cy="8" r="4"/>
    </g>
</symbol><symbol id="icon-phone" viewBox="0 0 512 512">
    <style>
        .st0{display:inline}.st1{fill:none;stroke:#000;stroke-width:16;stroke-linecap:round;stroke-linejoin:round;stroke-miterlimit:10}.st2{display:none}
    </style>
    <g class="st2" id="layer">
        <g class="st0">
            <path class="st1" d="M305.989 359.513s-2.375-32.569 5.408-38.409c23.362-17.522 100.801-8.773 115.922 16.14 12.7 20.925 4.435 72.46-12.151 86.932-6.96 6.073-36.078 8.325-36.078 8.325-78.748-1.229-150.286-31.834-204.024-81.283l-14.822-14.738c-49.729-53.436-80.506-124.57-81.743-202.875 0 0 2.264-28.956 8.371-35.876 14.555-16.492 66.382-24.711 87.425-12.083 25.054 15.036 33.853 92.039 16.23 115.269-5.872 7.74-38.626 5.378-38.626 5.378"/>
            <path class="st1" d="M306.12 359.39c-39.6-13.083-74.731-35.871-102.549-65.532l14.356 14.275c-29.83-27.66-52.748-62.594-65.904-101.97"/>
        </g>
    </g>
    <path d="M434.158 333.092c-9.802-16.148-35.668-23.274-50.215-26.086-26.549-5.13-60.764-4.74-77.348 7.698-5.459 4.097-8.178 12.563-8.813 27.452a153.061 153.061 0 0 0-.131 5.693c-28.178-10.883-54.189-27.118-76.389-47.683l-9.749-9.694c-20.652-22.044-36.964-47.872-47.903-75.845 1.829-.009 3.76-.046 5.738-.129 14.942-.631 23.439-3.33 27.551-8.75 12.455-16.417 12.906-50.315 7.828-76.626-2.815-14.591-9.979-40.531-26.315-50.335-16.252-9.754-41.371-7.401-51.417-5.935-20.725 3.021-37.967 10.344-46.124 19.586-7.108 8.055-9.605 31.042-10.348 40.55-.02.25-.027.507-.023.758 1.223 77.447 31.015 151.402 83.886 208.214.071.075.143.181.216.254l14.822 14.801c.073.073.147.271.224.339C226.771 409.916 301.107 439 378.965 441h.124c.206 0 .412-.258.618-.273 9.55-.739 32.636-3.469 40.721-10.523 9.302-8.116 16.671-25.277 19.713-45.907 1.474-10.003 3.843-35.015-5.983-51.205zm-9.846 48.87c-2.391 16.212-8.179 30.754-14.396 36.179-2.787 2.297-17.248 5.247-31.076 6.354-73.738-1.243-144.123-29.31-198.244-79.062l-14.6-14.519c-50.022-53.803-78.239-123.763-79.489-197.06 1.105-13.715 4.063-28.065 6.364-30.833 5.469-6.196 20.111-11.958 36.436-14.338 17.123-2.497 32.787-1.033 40.875 3.822 7.804 4.684 15.023 19.876 18.839 39.649 5.008 25.95 2.982 53.224-4.697 63.7-3.101 2.178-17.161 3.345-30.349 2.556a7.965 7.965 0 0 0-4.484.165 7.97 7.97 0 0 0-3.32 2.135 7.976 7.976 0 0 0-2.249 5.007 7.955 7.955 0 0 0 1.096 4.646c11.06 32.332 28.753 62.276 51.766 87.73.272.435.59.85.954 1.238a255.927 255.927 0 0 0 7.263 7.433 252.036 252.036 0 0 0 7.49 7.236c.391.362.808.678 1.244.947 25.59 22.873 55.694 40.465 88.193 51.458a7.923 7.923 0 0 0 4.643 1.086 7.959 7.959 0 0 0 5.03-2.282c.134-.126.254-.264.38-.399l.104-.118a7.936 7.936 0 0 0 1.634-2.791 7.941 7.941 0 0 0 .153-4.473c-.787-13.079.378-27.013 2.556-30.091 10.622-7.701 38.23-9.693 64.483-4.62 19.729 3.813 34.894 10.97 39.572 18.678 4.868 8.022 6.335 23.567 3.829 40.567z" id="layer_copy"/>
</symbol><symbol id="icon-plus" viewBox="0 0 24 24">
    <path fill="currentColor" d="M24 10H14V0h-4v10H0v4h10v10h4V14h10z"/>
</symbol><symbol id="icon-search" viewBox="0 0 24 24">
    <path fill-rule="evenodd" clip-rule="evenodd" d="M16 10.5a5.5 5.5 0 1 1-11 0 5.5 5.5 0 0 1 11 0zm-.613 5.69a7.5 7.5 0 1 1 1.33-1.494l4.825 4.135a1 1 0 0 1-1.301 1.518l-4.854-4.16z"/>
</symbol><symbol id="icon-small-plus" viewBox="0 0 12 12">
    <path d="M4.92 12h2.16V6.986H12V5.014H7.08V0H4.92v5.014H0v1.972h4.92V12z"/>
</symbol><symbol id="icon-telegram" viewBox="0 0 1024 1024">
    <path d="M908.524 124.334C782.531 176.517 242.289 400.292 93.021 461.281c-100.106 39.066-41.503 75.694-41.503 75.694s85.453 29.297 158.71 51.272c73.247 21.975 112.312-2.437 112.312-2.437l344.269-231.956c122.081-83.016 92.785-14.653 63.478 14.653-63.478 63.488-168.468 163.584-256.369 244.163-39.066 34.181-19.538 63.478-2.437 78.131 63.478 53.719 236.841 163.594 246.6 170.916 51.579 36.516 153.037 89.078 168.468-21.975l61.041-383.334c19.538-129.403 39.066-249.047 41.503-283.228 7.332-83.026-80.568-48.845-80.568-48.845z"/>
</symbol><symbol id="icon-viber" viewBox="0 0 24 24">
    <path d="M11.398.002C9.473.028 5.331.344 3.014 2.467 1.294 4.177.693 6.698.623 9.82c-.06 3.11-.13 8.95 5.5 10.541v2.42s-.038.97.602 1.17c.79.25 1.24-.499 1.99-1.299l1.4-1.58c3.85.32 6.8-.419 7.14-.529.78-.25 5.181-.811 5.901-6.652.74-6.031-.36-9.831-2.34-11.551l-.01-.002c-.6-.55-3-2.3-8.37-2.32 0 0-.396-.025-1.038-.016zm.067 1.697c.545-.003.88.02.88.02 4.54.01 6.711 1.38 7.221 1.84 1.67 1.429 2.528 4.856 1.9 9.892-.6 4.88-4.17 5.19-4.83 5.4-.28.09-2.88.73-6.152.52 0 0-2.439 2.941-3.199 3.701-.12.13-.26.17-.35.15-.13-.03-.17-.19-.16-.41l.02-4.019c-4.771-1.32-4.491-6.302-4.441-8.902.06-2.6.55-4.732 2-6.172 1.957-1.77 5.475-2.01 7.11-2.02zm.36 2.6a.299.299 0 0 0-.3.299.3.3 0 0 0 .3.3 5.631 5.631 0 0 1 4.03 1.59c1.09 1.06 1.621 2.48 1.641 4.34a.3.3 0 0 0 .3.3v-.009a.3.3 0 0 0 .3-.3 6.451 6.451 0 0 0-1.81-4.76c-1.19-1.16-2.692-1.76-4.462-1.76zm-3.954.69a.955.955 0 0 0-.615.12h-.012c-.41.24-.788.54-1.148.94-.27.32-.421.639-.461.949a1.24 1.24 0 0 0 .05.541l.02.01a13.722 13.722 0 0 0 1.2 2.6 15.383 15.383 0 0 0 2.32 3.171l.03.04.04.03.03.03.03.03a15.603 15.603 0 0 0 3.18 2.33c1.32.72 2.122 1.06 2.602 1.2v.01c.14.04.268.06.398.06a1.84 1.84 0 0 0 1.102-.472c.39-.35.7-.738.93-1.148v-.01c.23-.43.15-.841-.18-1.121a13.632 13.632 0 0 0-2.15-1.54c-.51-.28-1.03-.11-1.24.17l-.45.569c-.23.28-.65.24-.65.24l-.012.01c-3.12-.8-3.95-3.959-3.95-3.959s-.04-.43.25-.65l.56-.45c.27-.22.46-.74.17-1.25a13.522 13.522 0 0 0-1.54-2.15.843.843 0 0 0-.504-.3zm4.473.89a.3.3 0 0 0 .002.6 3.78 3.78 0 0 1 2.65 1.15 3.5 3.5 0 0 1 .9 2.57.3.3 0 0 0 .3.299l.01.012a.3.3 0 0 0 .3-.301c.03-1.19-.34-2.19-1.07-2.99-.73-.8-1.75-1.25-3.05-1.34a.3.3 0 0 0-.042 0zm.49 1.619a.305.305 0 0 0-.018.611c.99.05 1.47.55 1.53 1.58a.3.3 0 0 0 .3.29h.01a.3.3 0 0 0 .29-.32c-.07-1.34-.8-2.091-2.1-2.161a.305.305 0 0 0-.012 0z"/>
</symbol></svg>